<?xml version="1.0" encoding="UTF-8"?>
<svg width="35px" height="22px" viewBox="0 0 35 22" version="1.1" xmlns="http://www.w3.org/2000/svg" xmlns:xlink="http://www.w3.org/1999/xlink">
    <!-- Generator: Sketch 54.1 (76490) - https://sketchapp.com -->
    <title>Group 4</title>
    <desc>Created with Sketch.</desc>
    <g id="v4" stroke="none" stroke-width="1" fill="none" fill-rule="evenodd">
        <g id="Homepage---Fantasías-Miguel" transform="translate(-1227.000000, -4518.000000)">
            <g id="Group-4" transform="translate(1227.000000, 4518.000000)">
                <rect id="Rectangle-Copy-6" fill="#FFFFFF" x="0" y="0" width="35" height="22"></rect>
                <g id="Group-11" transform="translate(6.286408, 7.725191)">
                    <polygon id="Fill-1" fill="#00529B" points="9.09656153 0 7.98543689 6.54961832 9.76191236 6.54961832 10.8737864 0"></polygon>
                    <g id="Group-10">
                        <path d="M16.278071,0.287063613 C15.9188538,0.155449251 15.3560079,0.0143805485 14.6529921,0.0143805485 C12.8614933,0.0143805485 11.5993271,0.895126944 11.5886232,2.15740571 C11.5785564,3.09052417 12.4896608,3.61113486 13.1773853,3.92175968 C13.8830771,4.23997286 14.1203465,4.44299237 14.1170334,4.72724456 C14.1125734,5.16251739 13.5534229,5.36143172 13.0322458,5.36143172 C12.3065479,5.36143172 11.9210807,5.26303195 11.3256135,5.02057789 L11.091912,4.91732655 L10.8374399,6.3710557 C11.2610079,6.55230534 12.0440479,6.70942154 12.8571608,6.71750749 C14.7630892,6.71750749 16.0004072,5.84683743 16.0145516,4.49884761 C16.0213052,3.76016511 15.5382288,3.19788069 14.492179,2.73449364 C13.8584836,2.43406955 13.4703404,2.23353803 13.4744181,1.92938196 C13.4744181,1.65943568 13.8029254,1.37082952 14.5126948,1.37082952 C15.1057409,1.36187277 15.5351705,1.48801357 15.8697943,1.61962793 L16.032264,1.69451626 L16.278071,0.287063613" id="Fill-2" fill="#00529B"></path>
                        <path d="M18.6917203,4.31910319 C18.8417021,3.94491038 19.414105,2.50374555 19.414105,2.50374555 C19.4034011,2.52103704 19.5629399,2.12781114 19.6545601,1.88398869 L19.777145,2.44390953 C19.777145,2.44390953 20.1242567,3.99404806 20.1968902,4.31910319 L18.6917203,4.31910319 Z M20.9275576,0.133443031 L19.5264958,0.133443031 C19.0924788,0.133443031 18.7676669,0.249009895 18.5770358,0.671967204 L15.8842445,6.62322533 L17.7881341,6.62322533 C17.7881341,6.62322533 18.0995661,5.82308962 18.1699059,5.64743794 C18.3779945,5.64743794 20.2276001,5.65017472 20.4920115,5.65017472 C20.5462955,5.87745208 20.712588,6.62322533 20.712588,6.62322533 L22.3950091,6.62322533 L20.9275576,0.133443031 L20.9275576,0.133443031 Z" id="Fill-4" fill="#00529B"></path>
                        <path d="M6.36881068,0.13192536 L4.59362257,4.56041278 L4.40452063,3.66038451 C4.07410194,2.62289511 3.04449029,1.49894826 1.89331311,0.936290642 L3.51648058,6.6156121 L5.43489684,6.61349731 L8.2893932,0.13192536 L6.36881068,0.13192536" id="Fill-6" fill="#00529B"></path>
                        <path d="M2.94688107,0.127919706 L0.0231917476,0.127919706 L0,0.263017246 C2.27470267,0.800546226 3.77974515,2.09964716 4.40452063,3.66035963 L3.76878641,0.676147017 C3.65894417,0.265007634 3.34063107,0.142225615 2.94688107,0.127919706" id="Fill-8" fill="#F3AA00"></path>
                    </g>
                </g>
            </g>
        </g>
    </g>
</svg>