<?xml version="1.0" standalone="no"?>
<!DOCTYPE svg PUBLIC "-//W3C//DTD SVG 20010904//EN"
 "http://www.w3.org/TR/2001/REC-SVG-20010904/DTD/svg10.dtd">
<svg version="1.0" xmlns="http://www.w3.org/2000/svg"
 width="500.000000pt" height="500.000000pt" viewBox="0 0 500.000000 500.000000"
 preserveAspectRatio="xMidYMid meet">

<g transform="translate(0.000000,500.000000) scale(0.100000,-0.100000)"
fill="#000000" stroke="none">
<path d="M2382 2833 l3 -838 625 0 625 0 3 838 2 837 -630 0 -630 0 2 -837z
m411 753 c43 -18 81 -61 109 -121 19 -43 23 -66 22 -160 0 -96 -4 -120 -28
-185 -58 -153 -156 -322 -278 -482 l-72 -93 56 51 c90 82 178 94 178 24 0 -39
-58 -104 -122 -136 l-49 -25 20 -28 c20 -28 87 -75 145 -102 38 -18 43 -35 15
-50 -58 -31 -121 2 -186 96 -21 30 -41 54 -45 55 -4 0 -8 -35 -10 -77 l-3 -78
-35 0 -35 0 -3 170 c-4 208 14 563 34 705 18 117 54 251 85 311 29 58 87 118
123 128 43 13 43 13 79 -3z m380 -1055 c-6 -76 -5 -79 20 -95 13 -9 40 -19 59
-22 75 -13 258 57 323 122 37 37 45 41 45 21 0 -23 -93 -104 -160 -140 -84
-45 -159 -67 -232 -67 -66 0 -113 19 -123 51 -7 20 -10 18 -54 -24 -61 -59
-105 -81 -149 -73 -56 9 -82 40 -82 99 0 123 133 241 234 207 26 -8 39 -7 61
4 20 10 34 12 46 5 16 -8 18 -19 12 -88z"/>
<path d="M2724 3535 c-62 -62 -119 -249 -148 -485 -17 -143 -39 -430 -33 -437
6 -5 129 186 191 296 59 103 109 218 126 290 25 107 -2 285 -52 338 -28 30
-53 29 -84 -2z"/>
<path d="M2664 2601 c-43 -31 -112 -101 -101 -101 23 0 101 47 127 76 51 59
37 72 -26 25z"/>
<path d="M2994 2560 c-50 -20 -91 -100 -82 -161 5 -41 49 -37 88 7 37 42 83
135 72 145 -13 12 -57 17 -78 9z"/>
<path d="M1738 3605 c-146 -99 -218 -484 -218 -1173 0 -209 1 -212 55 -198 24
6 25 10 26 79 0 39 4 80 8 90 6 16 9 13 23 -15 21 -45 94 -125 129 -143 39
-21 83 -19 103 4 20 22 22 20 -65 63 -31 16 -76 49 -99 74 l-42 46 41 19 c83
37 151 108 151 157 0 22 -26 42 -54 42 -32 0 -103 -41 -149 -87 -26 -25 -47
-43 -47 -40 0 4 23 35 51 69 135 167 283 425 330 578 50 158 22 328 -66 418
-38 38 -47 42 -91 42 -36 0 -59 -7 -86 -25z m148 -32 c33 -35 53 -110 61 -219
7 -112 -12 -186 -91 -344 -50 -100 -204 -356 -247 -410 l-20 -25 6 110 c21
375 72 680 137 809 28 57 77 106 105 106 13 0 35 -12 49 -27z m-96 -964 c0
-26 -64 -90 -116 -114 -31 -15 -58 -25 -60 -22 -9 8 42 61 99 103 61 45 77 52
77 33z"/>
<path d="M1954 2566 c-16 -12 -19 -27 -19 -93 0 -68 4 -85 25 -116 42 -61 119
-82 184 -48 41 21 58 22 34 2 -7 -7 -53 -35 -103 -63 -172 -97 -304 -197 -441
-333 -115 -115 -136 -140 -174 -217 -54 -109 -61 -165 -28 -228 34 -66 96 -95
203 -95 261 2 508 226 584 530 28 113 44 292 45 490 l1 170 -35 0 -35 0 -6
-73 c-5 -67 -8 -75 -45 -113 -73 -75 -108 -38 -100 109 l4 92 -37 0 c-20 0
-46 -6 -57 -14z m223 -413 c-20 -324 -206 -607 -460 -701 -140 -53 -252 -1
-232 107 20 108 172 295 385 473 79 66 290 218 302 218 8 0 9 -31 5 -97z"/>
<path d="M2380 1910 l0 -70 54 0 c30 0 61 3 70 6 21 8 20 44 -1 60 -10 7 -13
14 -7 14 19 0 24 28 8 45 -10 10 -34 15 -70 15 l-54 0 0 -70z m105 30 c0 -10
-12 -16 -37 -18 -33 -3 -38 0 -38 18 0 18 5 21 38 18 25 -2 37 -8 37 -18z m11
-51 c9 -16 -15 -29 -53 -29 -26 0 -33 4 -33 20 0 17 7 20 39 20 22 0 43 -5 47
-11z"/>
<path d="M2740 1970 c0 -5 7 -10 16 -10 8 0 12 5 9 10 -3 6 -10 10 -16 10 -5
0 -9 -4 -9 -10z"/>
<path d="M3230 1970 c0 -5 7 -10 16 -10 8 0 12 5 9 10 -3 6 -10 10 -16 10 -5
0 -9 -4 -9 -10z"/>
<path d="M3630 1951 c0 -28 -1 -29 -29 -18 -25 9 -33 8 -50 -8 -26 -23 -27
-47 -3 -68 23 -21 46 -22 66 -1 15 14 16 14 16 0 0 -9 7 -16 15 -16 12 0 15
14 15 70 0 56 -3 70 -15 70 -10 0 -15 -10 -15 -29z m-10 -41 c12 -7 12 -13 4
-27 -15 -24 -52 -29 -60 -9 -14 37 20 59 56 36z"/>
<path d="M2560 1920 c-11 -11 -20 -24 -20 -30 0 -5 9 -19 20 -30 20 -20 54
-26 84 -14 28 11 17 19 -26 19 -22 0 -43 5 -45 10 -2 7 12 9 37 7 31 -3 41 0
47 13 15 40 -62 60 -97 25z m71 -15 c0 -5 -7 -12 -16 -13 -23 -5 -47 6 -40 19
8 13 56 8 56 -6z"/>
<path d="M2740 1890 c0 -38 4 -50 15 -50 11 0 15 12 15 50 0 38 -4 50 -15 50
-11 0 -15 -12 -15 -50z"/>
<path d="M2800 1890 c0 -38 4 -50 15 -50 10 0 15 10 15 34 0 26 5 36 20 41 29
9 40 -2 40 -41 0 -24 5 -34 15 -34 21 0 20 64 -1 84 -18 19 -45 21 -62 4 -9
-9 -12 -9 -12 0 0 7 -7 12 -15 12 -11 0 -15 -12 -15 -50z"/>
<path d="M2961 1931 c-23 -14 -5 -38 33 -45 50 -9 46 -29 -4 -24 -44 4 -54 -8
-15 -18 38 -9 75 3 75 26 0 14 -9 21 -35 26 -46 8 -45 24 3 24 27 0 33 3 22
10 -19 12 -60 13 -79 1z"/>
<path d="M3080 1870 c0 -55 3 -70 15 -70 11 0 13 8 9 30 -7 33 -3 36 25 18 15
-9 25 -9 46 0 22 10 26 18 23 44 -4 41 -48 62 -74 36 -14 -14 -14 -15 8 -11
32 6 56 -20 38 -42 -7 -8 -21 -15 -32 -15 -20 0 -29 16 -32 55 0 14 -7 25 -13
25 -9 0 -13 -21 -13 -70z"/>
<path d="M3230 1890 c0 -38 4 -50 15 -50 11 0 15 12 15 50 0 38 -4 50 -15 50
-11 0 -15 -12 -15 -50z"/>
<path d="M3290 1890 c0 -36 4 -50 14 -50 8 0 15 13 18 33 5 45 -1 67 -18 67
-10 0 -14 -13 -14 -50z"/>
<path d="M3337 1933 c-13 -12 -7 -18 18 -18 14 0 25 6 25 13 0 13 -32 17 -43
5z"/>
<path d="M3410 1920 c-11 -11 -20 -24 -20 -30 0 -5 9 -19 20 -30 20 -20 54
-26 84 -14 28 11 17 19 -26 19 -22 0 -43 5 -45 10 -2 7 12 9 37 7 31 -3 41 0
47 13 15 40 -62 60 -97 25z m71 -15 c0 -5 -7 -12 -16 -13 -23 -5 -47 6 -40 19
8 13 56 8 56 -6z"/>
</g>
</svg>
